<svg width="472" height="336" viewBox="0 0 472 336" fill="none" xmlns="http://www.w3.org/2000/svg">
<g filter="url(#filter0_d)">
<path d="M20 24C20 19.5817 23.5817 16 28 16H444C448.418 16 452 19.5817 452 24V304C452 308.418 448.418 312 444 312H28C23.5817 312 20 308.418 20 304V24Z" fill="#A0C4FA"/>
</g>
<g opacity="0.3">
<path d="M308.245 136C337.348 136 356.801 111.403 356.801 80C356.801 48.2873 337.348 24 308.556 24C279.609 24 260 48.5967 260 80C260 111.713 279.142 136 308.245 136ZM308.556 114.497C294.083 114.497 284.589 99.8011 284.589 80C284.589 59.8895 293.927 45.5028 308.245 45.5028C322.563 45.5028 332.212 60.3536 332.212 80C332.212 99.9558 323.03 114.497 308.556 114.497Z" fill="white"/>
<path d="M371.384 134.144H452V113.569H404.533L422.275 99.9558C441.573 85.105 450.911 76.1326 450.911 58.0331C450.911 37.4586 435.97 24.3094 413.404 24.3094C393.95 24.3094 383.523 32.1989 372.785 46.7403L389.593 60.1989C397.685 50.2983 403.444 45.6575 411.848 45.6575C420.407 45.6575 426.477 50.6077 426.477 59.7348C426.477 68.7072 421.185 74.5856 407.646 85.7238L371.384 115.271V134.144Z" fill="white"/>
</g>
<defs>
<filter id="filter0_d" x="0" y="0" width="472" height="336" filterUnits="userSpaceOnUse" color-interpolation-filters="sRGB">
<feFlood flood-opacity="0" result="BackgroundImageFix"/>
<feColorMatrix in="SourceAlpha" type="matrix" values="0 0 0 0 0 0 0 0 0 0 0 0 0 0 0 0 0 0 127 0"/>
<feOffset dy="4"/>
<feGaussianBlur stdDeviation="10"/>
<feColorMatrix type="matrix" values="0 0 0 0 0.645833 0 0 0 0 0.645833 0 0 0 0 0.645833 0 0 0 0.25 0"/>
<feBlend mode="normal" in2="BackgroundImageFix" result="effect1_dropShadow"/>
<feBlend mode="normal" in="SourceGraphic" in2="effect1_dropShadow" result="shape"/>
</filter>
</defs>
</svg>
