<svg width="36" height="32" viewBox="0 0 36 32" fill="none" xmlns="http://www.w3.org/2000/svg">
<path d="M16.6962 0.762713L0.203933 29.7118C-0.3755 30.7288 0.348791 32 1.50766 32H34.4924C35.6513 32 36.3754 30.7287 35.7961 29.7118L19.3036 0.762713C18.7242 -0.254238 17.2756 -0.254238 16.6962 0.762713Z" fill="#2B69DD"/>
<path d="M18 19.5C17.1303 19.5 16.4123 18.805 16.3648 17.9172L16.003 11.1563C15.9404 9.98489 16.8525 9 18 9C19.1475 9 20.0596 9.98503 19.997 11.1563L19.6352 17.9172C19.5877 18.805 18.8697 19.5 18 19.5Z" fill="#FBAC00"/>
<path d="M18 27.5C19.1046 27.5 20 26.7165 20 25.75C20 24.7835 19.1046 24 18 24C16.8954 24 16 24.7835 16 25.75C16 26.7165 16.8954 27.5 18 27.5Z" fill="#FBAC00"/>
</svg>
