<svg width="120" height="48" viewBox="0 0 120 48" fill="none" xmlns="http://www.w3.org/2000/svg">
<g clip-path="url(#clip0)">
<path d="M5.54932 10.6665L27.7471 5.6665V37.6665L5.54932 42.6665V10.6665Z" fill="#DE9902"/>
<path d="M5.54932 10.6665L27.7471 5.6665V37.6665L5.54932 42.6665V10.6665Z" fill="#DE9902"/>
<path d="M5.54932 10.6665H38.8461V42.6665H5.54932V10.6665Z" fill="#FBAC00"/>
<path d="M5.54932 10.6665H38.8461V42.6665H5.54932V10.6665Z" fill="#FBAC00"/>
<path fill-rule="evenodd" clip-rule="evenodd" d="M22.8014 21.7332C21.1983 21.7332 19.8334 22.7206 19.3325 24.099L19.0831 24.7853L18.3932 24.4873C17.9564 24.2986 17.4716 24.1932 16.9593 24.1932C15.0255 24.1932 13.4579 25.6998 13.4579 27.5582V27.9682C13.4579 29.8267 15.0255 31.3332 16.9593 31.3332H28.0513C29.5923 31.3332 30.8416 30.1326 30.8416 28.6516C30.8416 27.1705 29.5923 25.9699 28.0513 25.9699H26.4747V25.2634C26.4747 23.3138 24.8301 21.7332 22.8014 21.7332ZM18.3002 23.039C19.1401 21.4723 20.8397 20.3999 22.8014 20.3999C25.3753 20.3999 27.5004 22.2466 27.8204 24.6366H28.0513C30.3585 24.6366 32.2289 26.4341 32.2289 28.6516C32.2289 30.869 30.3585 32.6666 28.0513 32.6666H16.9593C14.2593 32.6666 12.0706 30.5631 12.0706 27.9682V27.5582C12.0706 24.9634 14.2593 22.8599 16.9593 22.8599C17.4236 22.8599 17.8736 22.9223 18.3002 23.039Z" fill="white"/>
<path d="M48.913 39.5982H50.4871V34.0109C50.4871 32.2116 51.7546 30.9237 53.431 30.9237C55.1074 30.9237 56.15 32.0033 56.15 33.8404V39.5982H57.7037V33.9541C57.7037 32.0222 59.0326 30.9237 60.6272 30.9237C62.3445 30.9237 63.3667 31.9843 63.3667 33.8783V39.5982H64.9408V33.5374C64.9408 31.1131 63.4484 29.5979 61.0156 29.5979C59.1757 29.5979 58.0513 30.4691 57.2949 31.5487C56.7224 30.4502 55.6185 29.5979 53.9012 29.5979C52.1226 29.5979 51.1822 30.4881 50.4871 31.454V29.8062H48.913V39.5982Z" fill="#333333"/>
<path d="M68.3993 27.666H70.1984V26.0561H68.3993V27.666ZM68.5015 39.5982H70.0757V29.8062H68.5015V39.5982Z" fill="#333333"/>
<path d="M73.7289 39.5982H75.3031V33.992C75.3031 32.1548 76.6523 30.9237 78.4718 30.9237C80.3322 30.9237 81.3953 32.0601 81.3953 33.8783V39.5982H82.9695V33.5185C82.9695 31.1888 81.4771 29.5979 78.9216 29.5979C77.1021 29.5979 75.9981 30.4502 75.3031 31.5108V29.8062H73.7289V39.5982Z" fill="#333333"/>
<path d="M86.3674 27.666H88.1665V26.0561H86.3674V27.666ZM86.4696 39.5982H88.0438V29.8062H86.4696V39.5982Z" fill="#333333"/>
<path d="M91.697 39.5982H93.2712V33.992C93.2712 32.1548 94.6204 30.9237 96.4399 30.9237C98.3003 30.9237 99.3634 32.0601 99.3634 33.8783V39.5982H100.938V33.5185C100.938 31.1888 99.4452 29.5979 96.8897 29.5979C95.0702 29.5979 93.9663 30.4502 93.2712 31.5108V29.8062H91.697V39.5982Z" fill="#333333"/>
<path d="M108.976 42.6665C110.653 42.6665 112.063 42.2309 113.004 41.3596C113.862 40.5642 114.353 39.4088 114.353 37.8936V29.8062H112.779V31.5676C111.92 30.507 110.632 29.5979 108.649 29.5979C106.135 29.5979 103.681 31.3593 103.681 34.2192C103.681 37.0792 106.114 38.8406 108.649 38.8406C110.591 38.8406 111.879 37.9126 112.799 36.7762V37.9315C112.799 40.2232 111.286 41.4165 108.956 41.4165C107.443 41.4165 106.094 40.9808 104.888 40.1664L104.172 41.3028C105.583 42.2119 107.218 42.6665 108.976 42.6665ZM108.956 37.5527C106.993 37.5527 105.296 36.189 105.296 34.2192C105.296 32.1737 106.952 30.8858 108.956 30.8858C110.959 30.8858 112.84 32.1927 112.84 34.2003C112.84 36.208 110.959 37.5527 108.956 37.5527Z" fill="#333333"/>
<path d="M53.5061 21.0079C56.7112 21.0079 59.0739 18.6332 59.0739 15.8372C59.0739 13.0029 56.7318 10.6665 53.5472 10.6665C50.3422 10.6665 48 13.0412 48 15.8372C48 18.6715 50.3216 21.0079 53.5061 21.0079ZM53.5472 19.6865C51.3078 19.6865 49.6231 17.9629 49.6231 15.8372C49.6231 13.7115 51.2051 11.9688 53.5061 11.9688C55.7456 11.9688 57.4508 13.7115 57.4508 15.8372C57.4508 17.9629 55.8483 19.6865 53.5472 19.6865Z" fill="#333333"/>
<path d="M61.9397 23.8422H63.5217V18.8821C64.3435 19.9929 65.6173 20.9887 67.5896 20.9887C70.1578 20.9887 72.6643 19.0737 72.6643 15.8372C72.6643 12.5433 70.1373 10.6665 67.5896 10.6665C65.6378 10.6665 64.3846 11.6815 63.5217 12.8688V10.8772H61.9397V23.8422ZM67.302 19.6673C65.3297 19.6673 63.46 18.1353 63.46 15.8372C63.46 13.5391 65.3297 11.9879 67.302 11.9879C69.3154 11.9879 71.0413 13.4817 71.0413 15.818C71.0413 18.2502 69.3565 19.6673 67.302 19.6673Z" fill="#333333"/>
<path d="M76.5281 16.4309H84.9517C84.9723 16.2011 84.9723 16.0478 84.9723 15.9138C84.9723 13.0029 83.1643 10.6665 80.0208 10.6665C77.0829 10.6665 74.9256 12.9646 74.9256 15.8372C74.9256 18.9205 77.3089 21.0079 80.2263 21.0079C82.2397 21.0079 83.5341 20.261 84.6024 19.1503L83.6163 18.3268C82.7534 19.1694 81.7261 19.7248 80.2674 19.7248C78.3978 19.7248 76.7541 18.5183 76.5281 16.4309ZM76.5281 15.2435C76.7541 13.3284 78.1512 11.9113 79.9797 11.9113C82.0754 11.9113 83.1848 13.4434 83.3697 15.2435H76.5281Z" fill="#333333"/>
<path d="M87.7417 20.7781H89.3237V15.1095C89.3237 13.2518 90.6797 12.0071 92.5082 12.0071C94.3778 12.0071 95.4462 13.1561 95.4462 14.9946V20.7781H97.0282V14.6307C97.0282 12.2752 95.5284 10.6665 92.9602 10.6665C91.1317 10.6665 90.0222 11.5283 89.3237 12.6007V10.8772H87.7417V20.7781Z" fill="#333333"/>
</g>
<defs>
<clipPath id="clip0">
<rect width="120" height="48" fill="white"/>
</clipPath>
</defs>
</svg>
